Coordinates
version=1
nRows=15
nColumns=34
inDegrees=yes

Units are S.I. units (second, meters, Newtons, ...)
If the header above contains a line with 'inDegrees', this indicates whether rotational values are in degrees (yes) or radians (no).

endheader
time	pelvis_tilt	pelvis_list	pelvis_rotation	pelvis_tx	pelvis_ty	pelvis_tz	hip_flexion_r	hip_adduction_r	hip_rotation_r	knee_angle_r	ankle_angle_r	subtalar_angle_r	mtp_angle_r	hip_flexion_l	hip_adduction_l	hip_rotation_l	knee_angle_l	ankle_angle_l	subtalar_angle_l	mtp_angle_l	lumbar_extension	lumbar_bending	lumbar_rotation	arm_flex_r	arm_add_r	arm_rot_r	elbow_flex_r	pro_sup_r	arm_flex_l	arm_add_l	arm_rot_l	elbow_flex_l	pro_sup_l
      0.00000000	      0.58260592	     -2.36476101	     -1.84661065	     -0.00102726	      1.18752290	     -0.09166601	     -4.93666139	      4.68862397	      0.05987526	      5.14049972	      8.59061116	     -6.93335885	      0.00000000	     -5.58259905	     -2.18853443	     -2.09646359	      2.34349392	      7.68124567	     -5.80447512	      0.00000000	     -6.42092489	      1.32984579	     -0.34910474	      2.89239812	     -9.50811565	     17.44415431	     26.63536779	     76.82226750	      4.93259557	     -9.82568991	     25.11235156	     22.11654836	     66.36515876
      0.01666670	     -1.36045419	     -1.86651330	     -1.99060145	     -0.00006254	      1.18650986	     -0.09233605	     -2.26461325	      4.49728707	      1.31566479	      6.12055244	     11.78900234	     -6.11658849	      0.00000000	     -2.88493343	     -1.13347797	     -2.05806931	      3.21750651	      8.27214815	     -4.96059305	      0.00000000	     -3.99738174	      0.99618759	     -0.70929030	      2.90272439	     -9.71372708	     17.99956466	     26.61749463	     76.98497793	      4.94223914	     -9.79271624	     25.15857489	     22.18271353	     66.61040285
      0.03333330	     -1.89094607	     -0.80963046	     -2.24525906	      0.00216372	      1.18476372	     -0.09303235	     -2.51074716	      3.38181615	      0.94104904	      4.96366570	     11.78560401	     -5.91285409	      0.00000000	     -2.51809215	      0.10815300	     -2.55646932	      3.12259938	      8.66945993	     -5.08610521	      0.00000000	     -3.04775000	     -0.30484670	     -0.78540470	      3.09554660	     -9.72689799	     18.18351418	     26.77468405	     77.02627382	      5.18165403	    -10.50124019	     25.30046246	     22.13960918	     66.72208441
      0.05000000	     -2.35392776	     -0.33838057	     -2.24075097	      0.00094277	      1.18347014	     -0.09326241	     -2.30019858	      2.87576457	     -0.06817270	      4.61452915	     12.83599895	     -4.07607228	      0.00000000	     -2.35482487	      0.68023836	     -2.68889522	      2.82876339	      9.20111192	     -4.54180381	      0.00000000	     -2.24797156	     -0.94175710	     -0.78874612	      3.55345820	    -10.20042524	     20.61548040	     26.77424049	     77.36320752	      5.75716061	    -11.53580957	     29.22979950	     22.17459397	     68.67172975
      0.06666670	     -2.61703139	     -0.07950813	     -2.34690128	     -0.00000773	      1.18471423	     -0.09304544	     -2.38368614	      2.66704271	     -0.09021491	      4.06134438	     12.63673418	     -4.05568476	      0.00000000	     -2.35188241	      1.08541669	     -2.56061747	      2.45988857	      9.26651468	     -4.55158395	      0.00000000	     -2.00934843	     -1.13812017	     -0.73689443	      4.08726814	    -10.28424239	     20.57908364	     26.94715496	     77.33861583	      6.27158720	    -11.86398056	     29.28204019	     22.18780901	     68.73520635
      0.08333330	     -2.77612410	     -0.01725395	     -2.28749264	     -0.00336180	      1.18364314	     -0.09057917	     -2.29798976	      2.79709918	     -0.05029045	      3.55858221	     12.63788221	     -4.02233355	      0.00000000	     -2.22574957	      1.01652749	     -2.65316142	      2.33042119	      9.22183552	     -4.61836396	      0.00000000	     -1.83843100	     -1.21617140	     -0.68071226	      4.73624512	    -10.40141176	     20.51133131	     27.11233958	     77.32894399	      6.95443707	    -12.21206792	     29.21177739	     22.29061957	     68.74111070
      0.10000000	     -2.96716357	      0.03801933	     -2.33236186	      0.00049404	      1.18612282	     -0.09323779	     -2.32775290	      2.74818101	      0.00511352	      3.18899941	     12.46643336	     -3.92571195	      0.00000000	     -2.17868466	      1.05164931	     -2.59050542	      2.33927594	      9.09439439	     -4.58045878	      0.00000000	     -1.59378089	     -1.11974747	     -0.67482537	      5.25212267	    -10.53535653	     20.44558555	     27.24023402	     77.31953359	      7.62691098	    -12.45234431	     29.13856636	     22.43205239	     68.74570695
      0.11666670	     -3.18557787	      0.05781590	     -2.27476758	      0.00215941	      1.18439699	     -0.09382058	     -2.38311572	      2.74752300	      0.10064921	      2.81724646	     12.29502783	     -3.80038003	      0.00000000	     -2.07812156	      1.12510777	     -2.48935661	      2.14112732	      9.14155000	     -4.58134790	      0.00000000	     -1.36805531	     -1.13761358	     -0.62659319	      5.81446580	    -10.72826539	     20.35991828	     27.37418894	     77.30804237	      8.26485146	    -12.63797050	     29.05607772	     22.59331096	     68.74805319
      0.13333330	     -3.33375642	      0.08190210	     -2.32581931	      0.00296320	      1.18348490	     -0.09372173	     -2.46532777	      2.70286872	      0.16230931	      2.56451196	     12.14470374	     -3.71208627	      0.00000000	     -2.08660192	      1.17206840	     -2.29986585	      2.03664302	      9.18528352	     -4.54162274	      0.00000000	     -1.09803735	     -1.12570987	     -0.58537699	      6.22776581	    -10.90834354	     20.27694960	     27.48647921	     77.29617246	      8.79201609	    -12.79392613	     28.96738551	     22.74571707	     68.74784177
      0.15000000	     -3.27933052	      0.10591984	     -2.22485636	      0.00214488	      1.18240698	     -0.09352863	     -2.92664256	      2.67568268	      0.50161517	      1.96836879	     11.36632913	     -4.04039208	      0.00000000	     -2.37293037	      1.26842949	     -1.33190490	      1.68414488	      9.14147273	     -5.36551145	      0.00000000	     -1.51491699	     -1.23384845	      0.21657889	      5.70345576	    -11.29782332	     18.14876866	     29.37750996	     76.82249664	      9.39584387	    -12.91925627	     27.13141448	     24.51503977	     69.04820069
      0.16666670	     -3.34522068	      0.08129375	     -2.23213087	      0.00272973	      1.18256866	     -0.09302703	     -2.84587836	      2.69406078	      0.49004203	      1.69894770	     11.46768526	     -4.06637033	      0.00000000	     -2.43775732	      1.22578006	     -1.30011727	      1.54453638	      9.15923941	     -5.33350136	      0.00000000	     -1.21786569	     -1.27403573	      0.17706231	      6.06355760	    -11.41855915	     18.06619841	     29.47811722	     76.81512458	      9.82690549	    -13.08847423	     27.04484913	     24.58901864	     69.04936075
      0.18333330	     -3.53500302	      0.07121474	     -2.16474415	      0.00089642	      1.18062492	     -0.09462756	     -2.72703513	      2.67680017	      0.57852108	      1.26605008	     11.55148405	     -4.02821808	      0.00000000	     -2.30054544	      1.23734667	     -1.12099404	      1.24542306	      9.09468608	     -5.18309957	      0.00000000	     -1.03888873	     -1.27760670	      0.16396603	      6.48662145	    -11.57849161	     17.93092142	     29.62262952	     76.80153320	     10.25941849	    -13.29256223	     26.91379075	     24.65380698	     69.05106061
      0.20000000	     -3.64389076	      0.03928587	     -2.27742221	     -0.00384278	      1.18414258	     -0.09259098	     -2.58886033	      2.71225170	      0.56968636	      0.97259500	     11.56551007	     -4.02288882	      0.00000000	     -2.16510496	      1.16277040	     -0.96456014	      1.02574775	      8.99322430	     -5.04027298	      0.00000000	     -0.85528925	     -1.31494816	      0.18723668	      6.97197659	    -11.62207228	     17.83493275	     29.80511984	     76.79234960	     10.70497028	    -13.44665865	     26.81140596	     24.73536761	     69.04837615
      0.21666670	     -4.24796958	      0.02155516	     -1.92766827	      0.00369771	      1.18043492	     -0.09450499	     -1.99313045	      2.75807754	      0.63760105	      0.65544175	     11.09002638	     -4.16345520	      0.00000000	     -1.56217202	      1.08268145	     -0.76618904	      0.96530915	      8.81011855	     -4.45027580	      0.00000000	     -0.25074919	     -1.26528364	     -0.30518401	      6.45666038	    -11.52221316	     15.62867819	     31.74271712	     76.55076698	     10.40097748	    -13.51706285	     24.92683662	     24.99971058	     69.12378810
      0.23333330	     -4.27312941	      0.01210752	     -1.91174478	      0.00371991	      1.18036689	     -0.09478233	     -1.94378013	      2.74564276	      0.63789318	      0.61964560	     11.09503527	     -4.16497941	      0.00000000	     -1.63412073	      1.07072883	     -0.76727815	      0.99445620	      8.80600911	     -4.44890749	      0.00000000	     -0.24570469	     -1.26882180	     -0.30431066	      6.46538158	    -11.52735130	     15.62496144	     31.74445253	     76.55074513	     10.41060678	    -13.51788723	     24.92398921	     25.00284788	     69.12403801
